<?xml version="1.0" standalone="no"?>
<!DOCTYPE svg PUBLIC "-//W3C//DTD SVG 20010904//EN"
 "http://www.w3.org/TR/2001/REC-SVG-20010904/DTD/svg10.dtd">
<svg version="1.0" xmlns="http://www.w3.org/2000/svg"
 width="512.000000pt" height="512.000000pt" viewBox="0 0 512.000000 512.000000"
 preserveAspectRatio="xMidYMid meet">
<metadata>
Created by potrace 1.14, written by Peter Selinger 2001-2017
</metadata>
<g transform="translate(0.000000,512.000000) scale(0.100000,-0.100000)"
fill="#000000" stroke="none">
<path d="M1935 4593 c-134 -31 -213 -132 -208 -263 3 -70 29 -125 83 -173 79
-71 181 -87 275 -43 131 60 184 211 120 341 -27 55 -77 102 -130 123 -36 14
-112 22 -140 15z"/>
<path d="M2295 4081 c-63 -16 -68 -27 -12 -27 122 -2 220 -88 365 -321 112
-179 150 -277 138 -358 -8 -47 -57 -131 -105 -175 -62 -57 -120 -106 -194
-163 -87 -68 -87 -69 3 -107 30 -12 148 -66 261 -120 349 -165 450 -196 649
-194 120 0 190 18 190 47 0 8 -20 41 -45 73 -67 86 -62 128 23 183 64 41 144
72 301 116 69 20 158 45 196 57 162 46 265 100 265 138 0 19 -40 53 -80 68
-26 10 -27 9 200 142 118 69 166 116 155 151 -16 50 -99 106 -190 128 -73 18
-119 26 -220 36 -110 11 -407 65 -715 131 -91 20 -174 38 -185 40 -11 2 -60
13 -110 23 -204 45 -325 69 -490 96 -16 3 -57 9 -90 15 -130 22 -271 31 -310
21z"/>
<path d="M2180 4029 c-38 -19 -82 -40 -90 -41 -3 -1 -19 -7 -36 -14 -20 -8
-59 -12 -105 -9 -59 3 -86 10 -141 38 -50 26 -76 33 -103 30 -51 -5 -154 -54
-188 -88 -38 -39 -233 -334 -273 -414 -74 -148 -57 -181 214 -399 78 -63 146
-112 149 -108 4 4 8 68 10 143 l3 137 -65 63 -65 64 58 84 c31 47 60 85 63 85
10 0 29 -86 34 -149 3 -31 7 -81 10 -111 2 -30 4 -71 5 -91 0 -35 1 -37 48
-46 45 -9 50 -8 58 11 8 19 18 21 86 22 84 1 98 -3 102 -32 3 -16 12 -19 72
-20 38 0 80 3 94 7 14 4 55 36 91 71 l66 65 7 80 c6 84 23 183 31 192 6 5 17
-9 82 -101 l46 -68 -55 -52 c-30 -29 -87 -84 -127 -122 -76 -72 -91 -96 -91
-150 0 -39 18 -96 31 -96 5 0 9 -5 9 -10 0 -23 -41 18 -62 62 -20 41 -26 47
-48 43 -13 -2 -51 -5 -83 -6 -48 -2 -60 -6 -69 -23 -16 -31 -24 -34 -93 -32
-66 2 -95 16 -95 46 0 13 -13 21 -46 29 -26 7 -48 11 -49 9 -11 -11 -22 -132
-30 -318 -3 -80 -8 -185 -10 -235 -14 -268 -29 -640 -28 -707 1 -27 -3 -48 -8
-48 -16 0 -22 -2 -119 -42 -415 -172 -720 -494 -876 -923 -4 -11 -8 -24 -10
-30 -1 -5 -12 -46 -23 -91 -28 -104 -30 -115 -37 -199 -5 -62 -4 -72 14 -88
31 -28 87 -30 118 -4 21 18 29 43 49 146 30 154 54 228 116 356 92 193 220
352 384 480 69 53 200 139 215 140 3 1 23 10 45 21 257 133 646 169 923 88 28
-9 50 -19 47 -24 -15 -24 -196 -87 -305 -105 -39 -7 -156 -33 -181 -41 -13 -3
-19 6 -28 39 -6 24 -17 49 -24 56 -9 7 -58 11 -126 12 -128 1 -109 9 -278
-118 -118 -88 -130 -106 -99 -148 11 -15 21 -17 60 -12 34 5 56 2 77 -9 32
-16 35 -15 92 29 31 24 40 27 52 17 49 -41 -41 -106 -160 -116 -33 -3 -76 -7
-95 -10 -19 -3 -35 -4 -35 -3 0 2 -28 -16 -62 -40 l-63 -44 5 -44 c3 -29 0
-45 -8 -48 -107 -37 -125 -47 -137 -74 -18 -43 -9 -73 30 -99 47 -32 79 -22
170 50 88 71 111 83 142 74 43 -11 69 -40 75 -82 10 -75 28 -88 84 -58 36 18
128 24 184 11 22 -5 47 -10 55 -12 59 -13 70 -18 70 -37 0 -33 -18 -56 -56
-68 -29 -10 -45 -9 -88 4 -51 16 -77 16 -141 -2 -60 -17 -125 7 -163 59 -34
48 -43 51 -110 45 -195 -19 -274 -66 -382 -228 -49 -73 -60 -97 -60 -131 0
-36 6 -46 52 -91 92 -89 232 -145 398 -161 36 -4 79 -8 95 -11 48 -6 270 -6
301 1 75 17 144 48 170 77 54 58 54 102 1 208 -32 65 -37 110 -12 110 8 0 51
-42 96 -92 107 -120 167 -177 203 -193 36 -16 86 -10 108 13 18 19 68 144 68
172 0 29 -29 44 -88 44 -51 1 -59 3 -74 29 -10 15 -18 41 -18 57 l0 29 33 -19
c40 -23 93 -37 177 -45 36 -4 73 -11 82 -16 9 -5 38 -44 64 -86 91 -148 148
-203 216 -204 45 -2 72 11 145 65 80 60 119 68 159 31 63 -59 82 -62 264 -50
122 8 153 17 181 56 28 40 31 99 9 210 -112 582 -571 1061 -1142 1195 -43 10
-79 22 -79 28 -3 27 -7 115 -13 286 -4 102 -9 217 -11 255 -2 39 -6 129 -9
200 -4 72 -9 186 -12 255 l-6 125 31 18 c17 10 36 23 43 30 7 7 39 31 71 55
68 51 202 166 235 202 86 93 81 139 -36 330 -116 188 -205 312 -245 341 -21
15 -62 35 -90 44 -29 9 -59 20 -67 24 -10 5 -29 2 -50 -10z m-196 -1538 c5
-31 51 -272 66 -351 6 -30 13 -71 16 -90 3 -19 7 -46 10 -60 2 -14 7 -42 10
-62 l7 -38 -69 -1 c-38 0 -95 -2 -127 -5 l-58 -5 5 28 c6 40 15 101 21 151 3
23 7 59 10 80 3 20 12 96 20 167 8 72 17 144 20 160 2 17 7 62 11 100 10 99
12 119 14 130 2 8 29 -119 44 -204z"/>
</g>
</svg>
